<svg xmlns="http://www.w3.org/2000/svg" xmlns:xlink="http://www.w3.org/1999/xlink" width="400.305" height="20.617" viewBox="0 0 400.305 20.617">
  <defs>
    <linearGradient id="linear-gradient" x1="0.177" y1="-0.069" x2="0.843" y2="1.168" gradientUnits="objectBoundingBox">
      <stop offset="0.16" stop-color="#fff"/>
      <stop offset="0.29" stop-color="#fff" stop-opacity="0.988"/>
      <stop offset="0.4" stop-color="#fff" stop-opacity="0.949"/>
      <stop offset="0.5" stop-color="#fff" stop-opacity="0.878"/>
      <stop offset="0.59" stop-color="#fff" stop-opacity="0.78"/>
      <stop offset="0.69" stop-color="#fff" stop-opacity="0.659"/>
      <stop offset="0.78" stop-color="#fff" stop-opacity="0.51"/>
      <stop offset="0.87" stop-color="#fff" stop-opacity="0.322"/>
      <stop offset="0.95" stop-color="#fff" stop-opacity="0.122"/>
      <stop offset="1" stop-color="#fff" stop-opacity="0"/>
    </linearGradient>
  </defs>
  <g id="Group_1485" data-name="Group 1485" transform="translate(19695.893 24490.002)">
    <g id="Group_1463" data-name="Group 1463" transform="translate(-19483.293 -24491.916)">
      <path id="Path_1753" data-name="Path 1753" d="M83.122,19.7H78.737v2.9H82.6v1.837H78.737V27.5h4.386v1.887h-6.7V17.8h6.7Z" transform="translate(-49.18 -11.222)" fill="#fff"/>
      <path id="Path_1754" data-name="Path 1754" d="M93.985,31.367c-2.3,0-3.906-1.34-4-3.045h2.333a1.523,1.523,0,0,0,1.655,1.225c.91,0,1.407-.414,1.407-.943,0-1.655-5.18-.6-5.18-3.955,0-1.523,1.357-2.758,3.624-2.758s3.558,1.208,3.69,3.028H95.3a1.366,1.366,0,0,0-1.539-1.192c-.91,0-1.307.348-1.307.877,0,1.655,5.081.629,5.147,3.988C97.593,30.176,96.219,31.367,93.985,31.367Z" transform="translate(-55.26 -13.056)" fill="#fff"/>
      <path id="Path_1755" data-name="Path 1755" d="M111.075,21.909c2.35,0,4.187,1.837,4.187,4.7s-1.837,4.766-4.187,4.766a3.746,3.746,0,0,1-3.028-1.456V35.6H105.73V22.058h2.317v1.324A3.663,3.663,0,0,1,111.075,21.909Zm-.612,2.036a2.475,2.475,0,0,0-2.416,2.7,2.475,2.475,0,0,0,2.416,2.7,2.526,2.526,0,0,0,2.433-2.758A2.408,2.408,0,0,0,110.463,23.945Z" transform="translate(-62.322 -13.064)" fill="#fff"/>
      <path id="Path_1756" data-name="Path 1756" d="M127.677,21.908a3.624,3.624,0,0,1,3.028,1.456V22.057h2.333v9.168h-2.333v-1.34a3.613,3.613,0,0,1-3.045,1.489c-2.317,0-4.17-1.9-4.17-4.766S125.343,21.908,127.677,21.908Zm.6,2.036a2.445,2.445,0,0,0-2.416,2.664,2.531,2.531,0,0,0,2.416,2.758,2.487,2.487,0,0,0,2.433-2.7A2.493,2.493,0,0,0,128.273,23.944Z" transform="translate(-70.285 -13.063)" fill="#fff"/>
      <path id="Path_1757" data-name="Path 1757" d="M148.685,28.132h2.5a4.066,4.066,0,0,1-3.459,3.166L146.4,33.373l-1.407-.9.778-1.208a4.4,4.4,0,0,1-3.437-4.617,4.4,4.4,0,0,1,4.534-4.733,4.09,4.09,0,0,1,4.319,3.244h-2.5a1.8,1.8,0,0,0-1.837-1.274c-1.291,0-2.151.976-2.151,2.758s.861,2.758,2.151,2.758A1.749,1.749,0,0,0,148.685,28.132Z" transform="translate(-78.732 -13.065)" fill="#fff"/>
      <path id="Path_1758" data-name="Path 1758" d="M163.565,31.389a4.49,4.49,0,0,1-4.65-4.733,4.716,4.716,0,1,1,9.433,0,4.584,4.584,0,0,1-4.783,4.733Zm0-2.019a2.44,2.44,0,0,0,2.4-2.714,2.418,2.418,0,0,0-2.367-2.714c-1.225,0-2.333.877-2.333,2.714S162.324,29.371,163.565,29.371Z" transform="translate(-86.165 -13.078)" fill="#fff"/>
      <path id="Path_1759" data-name="Path 1759" d="M186.373,19.529a3.762,3.762,0,0,1,3,1.423V16.6h2.35V28.846h-2.35V27.489A3.464,3.464,0,0,1,186.357,29c-2.333,0-4.187-1.9-4.187-4.766S184.023,19.529,186.373,19.529Zm.579,2.036a2.445,2.445,0,0,0-2.416,2.664,2.531,2.531,0,0,0,2.416,2.758,2.487,2.487,0,0,0,2.433-2.7A2.493,2.493,0,0,0,186.953,21.565Z" transform="translate(-96.595 -10.684)" fill="#fff"/>
      <path id="Path_1760" data-name="Path 1760" d="M205.667,31.389a4.49,4.49,0,0,1-4.672-4.733,4.716,4.716,0,1,1,9.433,0,4.584,4.584,0,0,1-4.761,4.733Zm0-2.019a2.44,2.44,0,0,0,2.4-2.714,2.418,2.418,0,0,0-2.367-2.714c-1.225,0-2.333.877-2.333,2.714S204.426,29.371,205.667,29.371Z" transform="translate(-105.032 -13.078)" fill="#fff"/>
      <path id="Path_1761" data-name="Path 1761" d="M228.891,31.371a4.44,4.44,0,0,1-4.6-4.733,4.414,4.414,0,0,1,4.6-4.733,4.3,4.3,0,0,1,4.518,4.534,5.422,5.422,0,0,1-.066.894h-6.7a2.146,2.146,0,0,0,2.207,2.118,1.887,1.887,0,0,0,1.837-1.1h2.5a4.259,4.259,0,0,1-4.292,3.023Zm-2.207-5.594h4.352a2.035,2.035,0,0,0-2.207-1.969,2.129,2.129,0,0,0-2.173,1.969Z" transform="translate(-115.48 -13.06)" fill="#fff"/>
      <path id="Path_1762" data-name="Path 1762" d="M245.485,31.367c-2.3,0-3.906-1.34-4-3.045h2.333a1.523,1.523,0,0,0,1.655,1.225c.91,0,1.407-.414,1.407-.943,0-1.655-5.18-.6-5.18-3.955,0-1.523,1.357-2.758,3.624-2.758s3.558,1.208,3.69,3.028H246.8a1.366,1.366,0,0,0-1.539-1.192c-.91,0-1.307.348-1.307.877,0,1.655,5.081.629,5.147,3.988C249.093,30.176,247.719,31.367,245.485,31.367Z" transform="translate(-123.187 -13.056)" fill="#fff"/>
      <path id="Path_1763" data-name="Path 1763" d="M256.993,22.24h-1.1v-1.9h1.1V18.07h2.333v2.267h2.052v1.9h-2.052v4.413c0,.612.248.877.976.877h1.076v1.975h-1.456c-1.754,0-2.929-.745-2.929-2.846Z" transform="translate(-129.648 -11.343)" fill="#fff"/>
      <path id="Path_1764" data-name="Path 1764" d="M275.958,31.348h-2.333V30.19a3.382,3.382,0,0,1-2.731,1.269c-2.135,0-3.674-1.39-3.674-3.906V22.18h2.317v5.047a2.055,2.055,0,1,0,4.088,0V22.18h2.333Z" transform="translate(-134.728 -13.186)" fill="#fff"/>
      <path id="Path_1765" data-name="Path 1765" d="M288.823,19.529a3.762,3.762,0,0,1,3,1.423V16.6h2.35V28.846h-2.35V27.489A3.464,3.464,0,0,1,288.807,29c-2.333,0-4.187-1.9-4.187-4.766S286.484,19.529,288.823,19.529Zm.579,2.036a2.445,2.445,0,0,0-2.416,2.664,2.531,2.531,0,0,0,2.416,2.758,2.487,2.487,0,0,0,2.433-2.7,2.493,2.493,0,0,0-2.433-2.725Z" transform="translate(-142.53 -10.684)" fill="#fff"/>
      <path id="Path_1766" data-name="Path 1766" d="M307.647,21.908a3.624,3.624,0,0,1,3.028,1.456V22.057h2.333v9.168h-2.333v-1.34a3.613,3.613,0,0,1-3.045,1.489c-2.317,0-4.17-1.9-4.17-4.766S305.314,21.908,307.647,21.908Zm.6,2.036a2.445,2.445,0,0,0-2.416,2.664,2.531,2.531,0,0,0,2.416,2.758,2.487,2.487,0,0,0,2.433-2.7,2.493,2.493,0,0,0-2.433-2.725Z" transform="translate(-150.977 -13.063)" fill="#fff"/>
      <path id="Path_1767" data-name="Path 1767" d="M329.781,26.176a1.983,1.983,0,0,0-2.036-2.267,2.006,2.006,0,0,0-2.069,2.267V31.24H323.36V22.071h2.317v1.142a3.426,3.426,0,0,1,2.758-1.274c2.135,0,3.657,1.39,3.657,3.922V31.24h-2.311Z" transform="translate(-159.9 -13.077)" fill="#fff"/>
      <path id="Path_1768" data-name="Path 1768" d="M341.473,22.24h-1.1v-1.9h1.1V18.07h2.333v2.267h2.052v1.9h-2.052v4.413c0,.612.248.877.976.877h1.076v1.975H344.4c-1.754,0-2.929-.745-2.929-2.846Z" transform="translate(-167.526 -11.343)" fill="#fff"/>
      <path id="Path_1769" data-name="Path 1769" d="M355.371,31.371a4.44,4.44,0,0,1-4.6-4.733,4.414,4.414,0,0,1,4.6-4.733,4.3,4.3,0,0,1,4.518,4.534,5.419,5.419,0,0,1-.066.894H353.1a2.146,2.146,0,0,0,2.207,2.118,1.887,1.887,0,0,0,1.837-1.1h2.5A4.259,4.259,0,0,1,355.371,31.371Zm-2.234-5.594h4.38a2.036,2.036,0,0,0-2.207-1.969,2.129,2.129,0,0,0-2.173,1.969Z" transform="translate(-172.189 -13.06)" fill="#fff"/>
    </g>
    <g id="Layer_2" data-name="Layer 2" transform="translate(-19483 -24489)">
      <g id="Layer_1" data-name="Layer 1" transform="translate(0 0)">
        <path id="Path_1910" data-name="Path 1910" d="M345.3,97.31h-3.92a5.808,5.808,0,0,0-1.66-2.471V93.29h3.73a8.97,8.97,0,0,1,.528.743h0a9.644,9.644,0,0,1,.634,1.159A9.505,9.505,0,0,1,345.3,97.31Z" transform="translate(-326.268 -89.596)" fill="url(#linear-gradient)"/>
        <path id="Path_1911" data-name="Path 1911" d="M17.181,3.694h-3.73V5.243a5.632,5.632,0,0,0-.9-.649,5.821,5.821,0,0,0-8.446,6.913h0A5.832,5.832,0,0,0,6.614,14.6a5.774,5.774,0,0,0,2.994.832v3.793A9.6,9.6,0,0,1,1.394,14.6,9.477,9.477,0,0,1,.188,11.506,9.61,9.61,0,0,1,17.181,3.694Z" transform="translate(0 0)" fill="#fff"/>
        <path id="Path_1912" data-name="Path 1912" d="M252.113,194.79l-3.712,3.792h-5.71V194.79h9.423Z" transform="translate(-233.08 -187.077)" fill="#fff"/>
      </g>
    </g>
    <path id="Path_66" data-name="Path 66" d="M230.792,52.754V72.477" transform="translate(-19724.533 -24542.254)" fill="none" stroke="#fff" stroke-width="1"/>
    <g id="Group_906" data-name="Group 906" transform="translate(-19695.895 -24490.002)">
      <g id="Group_1387" data-name="Group 1387">
        <path id="Exclusion_1" data-name="Exclusion 1" d="M19755.74,24509.6H19695.9l0-2.465h3.736v-.432h-3.734l0-2.441h3.736v-.426h-3.734l0-2.447h3.736v-.424h-3.734l0-2.449h3.736v-.424h-3.734l0-2.455h3.736v-.418h-3.734l0-2.447h3.736v-.426h-3.734v-2.465h59.844v2.465H19752v.426h3.738v2.447H19752v.418h3.738v2.455H19752v.424h3.738v2.449H19752v.424h3.738v2.447H19752v.426h3.738v2.441H19752v.432h3.738v2.465h0Zm-26.342-6.82h0a4.045,4.045,0,0,0,.568,3.467c.852,1.031,2.445,1.533,4.873,1.533a9.918,9.918,0,0,0,4.746-1.121,5.179,5.179,0,0,0,2.691-3.449,3.145,3.145,0,0,0-.943-3.424,8.367,8.367,0,0,0-3.168-1.2l-.02,0c-.314-.074-.611-.145-.9-.223-1-.277-2.254-.623-2.021-1.715a2.1,2.1,0,0,1,1.947-1.344c.029,0,.059,0,.088,0,.064-.006.129-.012.2-.012a1.962,1.962,0,0,1,1.281.479,1.306,1.306,0,0,1,.252,1.3l4.078.006a3.37,3.37,0,0,0-.344-3.055c-1.039-1.373-3.322-1.576-4.59-1.576a9.7,9.7,0,0,0-4.437.914,5.3,5.3,0,0,0-2.8,3.533,2.958,2.958,0,0,0,1.459,3.586,15.193,15.193,0,0,0,3.063,1.012c1.621.4,2.791.693,2.521,1.965-.215,1.014-1.564,1.471-2.453,1.471a2.176,2.176,0,0,1-1.771-.66,1.688,1.688,0,0,1-.238-1.48Zm-28.322,0h0a4.052,4.052,0,0,0,.572,3.467c.852,1.031,2.445,1.533,4.873,1.533a9.926,9.926,0,0,0,4.748-1.121,5.179,5.179,0,0,0,2.691-3.449,3.137,3.137,0,0,0-.943-3.424,8.378,8.378,0,0,0-3.158-1.2l-.01,0c-.275-.062-.6-.139-.916-.225-1.008-.277-2.254-.621-2.025-1.715a2.108,2.108,0,0,1,1.955-1.344c.029,0,.059,0,.088,0,.064-.006.129-.012.2-.012a1.939,1.939,0,0,1,1.275.479,1.289,1.289,0,0,1,.258,1.3l4.072.006a3.355,3.355,0,0,0-.34-3.053c-1.039-1.373-3.324-1.578-4.594-1.578a9.676,9.676,0,0,0-4.434.914,5.321,5.321,0,0,0-2.807,3.533,2.958,2.958,0,0,0,1.459,3.586,15.193,15.193,0,0,0,3.063,1.012c1.623.4,2.793.693,2.521,1.965-.215,1.014-1.564,1.471-2.453,1.471a2.171,2.171,0,0,1-1.77-.662,1.683,1.683,0,0,1-.24-1.479Zm45.66-10.033h0l-3.123,14.721h4.072l3.131-14.721Zm-28.271,0h0l-3.127,14.721h11.213l-.008-.008.609-2.854h-7.135l.664-3.119h6.57l.6-2.854h-6.57l.648-3.033h7.133l.615-2.854Z" transform="translate(-19672.92 -24489.879)" fill="#fff"/>
        <path id="Exclusion_2" data-name="Exclusion 2" d="M19716.848,24509.6H19695.9v-19.719h20.951v19.719Zm-18.49-2.9v.434h16.023v-.432h-16.023Zm8.92-2.164h0l-.387,1.877h1.391l.08-.412h-.861l.33-1.465Zm-1.729,0h0l-.387,1.877h1.445l.088-.395h-.924l.086-.361h.836l.08-.389h-.836l.08-.369h.9l.086-.363Zm-.822,0h0l-.406,1.877h.551l.391-1.877Zm-6.369-.7v.428h16.023v-.426h-16.023Zm3.709-.91v.045l-.006.037v.086a.477.477,0,0,0,.129.332.722.722,0,0,0,.455.16l.051,0a.2.2,0,0,1,.047,0l.039,0h.039a1.085,1.085,0,0,0,.66-.223.645.645,0,0,0,.24-.492.369.369,0,0,0-.006-.08.2.2,0,0,0-.012-.057v-.006l-.006-.012a.392.392,0,0,0-.117-.16.661.661,0,0,0-.258-.117,2.159,2.159,0,0,1-.363-.1c-.1-.045-.154-.094-.154-.143a.154.154,0,0,1,.074-.129.3.3,0,0,1,.16-.061h.037a.246.246,0,0,1,.146.043.131.131,0,0,1,.063.129v.031a.013.013,0,0,1,0,.01l0,.006a.029.029,0,0,0,0,.014h.529a.38.38,0,0,0,.025-.1.275.275,0,0,1,0-.039.324.324,0,0,0,0-.047.333.333,0,0,0-.172-.314.847.847,0,0,0-.363-.1h-.16a1.185,1.185,0,0,0-.6.16.606.606,0,0,0-.3.51l-.006.006a.35.35,0,0,0,.215.363l.012,0,.01.006a.119.119,0,0,0,.035.01.2.2,0,0,1,.055.023l.006,0,.006,0,.059.02.059.018.143.037a1.087,1.087,0,0,1,.221.074c.064.029.1.064.1.109v.025a.144.144,0,0,1-.055.123.331.331,0,0,1-.129.068.279.279,0,0,1-.053.018l-.021.006-.035,0a.179.179,0,0,1-.033,0,.1.1,0,0,1-.023,0,.2.2,0,0,1-.148-.068.257.257,0,0,1-.055-.166v-.057h-.529Zm8.291-1.258h0l-.4,1.875h.547l.387-1.875Zm-1.98,1.506h.738l.057.369h.6l-.35-1.875h-.652l-1.119,1.875h.535l.2-.367Zm-2-1.053.344,1.422h.738l.4-1.875h-.49l-.309,1.346-.324-1.346h-.752l-.387,1.875h.486l.287-1.422Zm-2.121-.453h0l-.391,1.875h1.447l.08-.387h-.916l.08-.369h.836l.08-.387h-.838l.088-.369h.9l.086-.363Zm-5.9-.7v.426h16.023v-.424h-16.023Zm4.934-.91v.045l-.006.043v.08a.529.529,0,0,0,.129.338.793.793,0,0,0,.455.154.392.392,0,0,0,.049,0,.275.275,0,0,1,.055-.006l.037,0h.041a1.077,1.077,0,0,0,.654-.223.645.645,0,0,0,.246-.492.326.326,0,0,0-.006-.074.274.274,0,0,0-.025-.08.368.368,0,0,0-.115-.16.637.637,0,0,0-.26-.113,1.708,1.708,0,0,1-.363-.107c-.1-.037-.146-.084-.146-.135a.147.147,0,0,1,.074-.135.267.267,0,0,1,.16-.057h.029a.088.088,0,0,1,.021,0,.241.241,0,0,1,.127.039.152.152,0,0,1,.066.129v.031a.056.056,0,0,0-.006.031h.529l.006-.025.006-.043a.088.088,0,0,0,.006-.031.335.335,0,0,0,.008-.086.346.346,0,0,0-.166-.32.992.992,0,0,0-.363-.1h-.162a1.239,1.239,0,0,0-.607.16.613.613,0,0,0-.3.51v.008a.334.334,0,0,0,.209.361l.063.025.049.018.006,0,.006,0,.117.037.146.037a1.287,1.287,0,0,1,.217.08c.066.023.1.063.1.105v.023a.154.154,0,0,1-.061.123.409.409,0,0,1-.129.074l-.043.01-.031.008-.029,0a.24.24,0,0,1-.039,0,.054.054,0,0,1-.018,0,.222.222,0,0,1-.154-.064.282.282,0,0,1-.055-.166v-.061h-.529Zm3.617-.006h0l-.008.043,0,.045v.078a.516.516,0,0,0,.129.34.751.751,0,0,0,.455.152.568.568,0,0,0,.1-.006c.027,0,.055,0,.082,0a1.037,1.037,0,0,0,.65-.223.627.627,0,0,0,.246-.492.24.24,0,0,0-.008-.074.2.2,0,0,0-.018-.08.465.465,0,0,0-.117-.16.624.624,0,0,0-.264-.109,1.955,1.955,0,0,1-.357-.111c-.1-.037-.154-.084-.154-.135a.172.172,0,0,1,.074-.137.365.365,0,0,1,.16-.055h.037a.066.066,0,0,1,.02,0,.283.283,0,0,1,.129.039.139.139,0,0,1,.061.129v.031a.026.026,0,0,1,0,.018.052.052,0,0,0,0,.014h.529a.3.3,0,0,0,.02-.086l.006-.014a.677.677,0,0,0,0-.086.329.329,0,0,0-.166-.314.875.875,0,0,0-.369-.1h-.156a1.2,1.2,0,0,0-.605.16.618.618,0,0,0-.3.51v.006a.367.367,0,0,0,.066.252.407.407,0,0,0,.143.117l.061.02.027.01.029.008.006,0,.006,0c.037.014.074.025.117.037l.141.037.041.016.027.008c.051.018.1.035.152.057.066.027.1.063.1.1v.025a.171.171,0,0,1-.055.129.314.314,0,0,1-.131.068.382.382,0,0,1-.055.012l-.025,0a.143.143,0,0,1-.061.008.1.1,0,0,1-.023,0,.235.235,0,0,1-.154-.062.243.243,0,0,1-.051-.166v-.062Zm2.221-1.254h0l-.4,1.877h.553l.389-1.877Zm-3.643,0h0l-.389,1.877h1.443l.086-.389h-.924l.086-.363h.838l.078-.387h-.836l.082-.369h.9l.086-.369Zm-7.129-.7v.426h16.023v-.424h-16.023Zm4.994-2.227a1.071,1.071,0,0,0-.687.254,1.275,1.275,0,0,0-.389.781,1.455,1.455,0,0,0-.018.229l-.006.006v.141a.713.713,0,0,0,.172.4.739.739,0,0,0,.486.184.525.525,0,0,0,.1-.006h.086a1.1,1.1,0,0,0,.48-.1.974.974,0,0,0,.313-.24.6.6,0,0,0,.105-.172.369.369,0,0,0,.037-.129v-.031h-.549a.253.253,0,0,1-.08.16.359.359,0,0,1-.135.1l-.012,0a.153.153,0,0,1-.049.014.1.1,0,0,1-.051.008h-.055a.054.054,0,0,1-.018,0,.238.238,0,0,1-.2-.107.445.445,0,0,1-.057-.252v-.012c0-.006,0-.01,0-.014a.161.161,0,0,1,0-.061.169.169,0,0,1,0-.055.136.136,0,0,0,.008-.045.111.111,0,0,0,0-.025.05.05,0,0,1,0-.023v-.012s0-.008,0-.012,0-.016,0-.025a1.051,1.051,0,0,1,.172-.418.476.476,0,0,1,.229-.178l.043-.008h.1a.172.172,0,0,1,.033,0,.114.114,0,0,0,.035,0,.333.333,0,0,1,.111.061.156.156,0,0,1,.055.141v.051h.572l0-.018a.3.3,0,0,0,.008-.057v-.074a.34.34,0,0,0-.166-.32,1.007,1.007,0,0,0-.363-.129l-.041-.006a.779.779,0,0,0-.094-.006h-.129C19703.4,24495.863,19703.375,24495.863,19703.352,24495.863Zm6.488,0a1.064,1.064,0,0,0-.687.254,1.268,1.268,0,0,0-.338.529,1.417,1.417,0,0,0-.055.252,2.108,2.108,0,0,0-.014.229l.014.006v.135a.675.675,0,0,0,.166.4.708.708,0,0,0,.492.184.405.405,0,0,0,.086-.006h.037l.033,0h.033a1.048,1.048,0,0,0,.461-.107.946.946,0,0,0,.309-.232.7.7,0,0,0,.111-.18.272.272,0,0,0,.029-.123v-.029h-.547a.262.262,0,0,1-.074.152.378.378,0,0,1-.141.1.232.232,0,0,1-.051.023h-.006a.12.12,0,0,1-.025,0,.078.078,0,0,1-.029.006h-.061a.054.054,0,0,1-.018,0,.237.237,0,0,1-.2-.107.512.512,0,0,1-.061-.252v-.086l0-.006a.331.331,0,0,0,0-.043.213.213,0,0,1,.01-.051.2.2,0,0,0,0-.049.14.14,0,0,0,.006-.049,1.157,1.157,0,0,1,.174-.418.483.483,0,0,1,.227-.178l.049-.008h.1a.151.151,0,0,1,.029,0,.267.267,0,0,0,.037,0,.415.415,0,0,1,.117.061.188.188,0,0,1,.057.141v.051h.564l0-.016a.306.306,0,0,0,.01-.059.137.137,0,0,0,0-.074.339.339,0,0,0-.16-.32,1.056,1.056,0,0,0-.363-.129h-.014l-.01,0a.774.774,0,0,0-.119-.01h-.123C19709.887,24495.863,19709.863,24495.863,19709.84,24495.863Zm-3.012,1.318h0l0,.043v.123a.486.486,0,0,0,.129.338.766.766,0,0,0,.455.154.559.559,0,0,0,.1-.012c.029,0,.061,0,.092,0a1.082,1.082,0,0,0,.646-.221.633.633,0,0,0,.24-.492.351.351,0,0,0-.006-.08.1.1,0,0,1,0-.023.306.306,0,0,0-.016-.057.426.426,0,0,0-.117-.152.58.58,0,0,0-.264-.117,2.328,2.328,0,0,1-.357-.105c-.105-.043-.152-.088-.152-.141a.159.159,0,0,1,.08-.135.314.314,0,0,1,.152-.057h.037a.283.283,0,0,1,.148.043.133.133,0,0,1,.061.129v.031a.013.013,0,0,1,0,.01s0,.006,0,.01a.025.025,0,0,0,0,.012h.529a.456.456,0,0,0,.021-.09l.006-.016a.144.144,0,0,1,0-.041.321.321,0,0,0,0-.045.332.332,0,0,0-.174-.312.82.82,0,0,0-.361-.1h-.16a1.219,1.219,0,0,0-.6.16.614.614,0,0,0-.3.512l0,0,0,0a.388.388,0,0,0,.066.26.425.425,0,0,0,.143.111l.061.018.049.018h.02a.459.459,0,0,0,.117.039l.141.041a1.836,1.836,0,0,1,.223.074c.063.031.1.07.1.111v.023a.159.159,0,0,1-.055.123.423.423,0,0,1-.131.068.4.4,0,0,1-.078.025.217.217,0,0,0-.033,0,.158.158,0,0,1-.029,0,.066.066,0,0,1-.02,0,.2.2,0,0,1-.152-.07.194.194,0,0,1-.055-.16v-.061Zm-1.428-1.256h0l-.385,1.877h1.445l.086-.387h-.924l.086-.369h.832l.08-.389h-.832l.078-.369h.9l.086-.363Zm-.818,0h0l-.406,1.877h.557l.385-1.877Zm-6.225-.709v.42h16.023v-.418h-16.023Zm11.285-2.225a1.089,1.089,0,0,0-.705.252,1.282,1.282,0,0,0-.338.535,1.957,1.957,0,0,0-.057.252l-.006.07q-.006.076-.006.152v.146a.685.685,0,0,0,.166.4.718.718,0,0,0,.486.186.4.4,0,0,0,.1-.008h.09a1.171,1.171,0,0,0,.477-.1.94.94,0,0,0,.314-.234.631.631,0,0,0,.1-.178.39.39,0,0,0,.037-.129v-.025h-.547a.313.313,0,0,1-.08.154.422.422,0,0,1-.135.1.118.118,0,0,1-.062.02h-.006a.086.086,0,0,1-.029.01l-.006,0h-.008l-.031,0h-.031a.171.171,0,0,1-.031,0,.215.215,0,0,1-.184-.1.429.429,0,0,1-.061-.246v-.014c0-.006,0-.01,0-.016a.333.333,0,0,1,0-.062c0-.025.006-.045.008-.068l0-.02.006-.016v-.02a.1.1,0,0,1,0-.023.115.115,0,0,0,.008-.051,1.216,1.216,0,0,1,.172-.418.48.48,0,0,1,.229-.178l.049-.012h.1l.016,0,.018,0a.217.217,0,0,1,.033,0,.327.327,0,0,1,.117.063.192.192,0,0,1,.055.137v.049h.566a.681.681,0,0,1,.02-.074v-.068a.361.361,0,0,0-.168-.324,1.044,1.044,0,0,0-.361-.123.167.167,0,0,1-.045-.01h-.01a.443.443,0,0,0-.082-.01h-.18Zm-3.031,1.328h0l0,.043v.123a.492.492,0,0,0,.129.34.751.751,0,0,0,.455.152.568.568,0,0,0,.1-.006c.027,0,.055,0,.082,0a1.037,1.037,0,0,0,.65-.223.658.658,0,0,0,.246-.492.24.24,0,0,0-.008-.074l-.014-.064,0-.016a.476.476,0,0,0-.123-.16.682.682,0,0,0-.258-.117,1.748,1.748,0,0,1-.363-.1c-.1-.037-.148-.086-.148-.143a.166.166,0,0,1,.074-.129.331.331,0,0,1,.16-.055h.031a.08.08,0,0,1,.021,0,.235.235,0,0,1,.125.039.139.139,0,0,1,.068.129v.031a.03.03,0,0,0,0,.016.115.115,0,0,0-.008.016h.535c0-.018.008-.033.012-.049a.409.409,0,0,0,.01-.041l0-.01a.188.188,0,0,1,0-.047.294.294,0,0,0,0-.039.33.33,0,0,0-.172-.314.925.925,0,0,0-.363-.1h-.16a1.239,1.239,0,0,0-.607.16.6.6,0,0,0-.295.516l-.008-.012a.417.417,0,0,0,.068.252.357.357,0,0,0,.143.111.183.183,0,0,0,.055.02l.006,0,.055.02.008,0,.006,0a.286.286,0,0,0,.064.023l.012,0a.312.312,0,0,1,.041.01l.141.037a2.157,2.157,0,0,1,.221.08c.066.031.1.068.1.109v.02a.172.172,0,0,1-.057.129.331.331,0,0,1-.129.068.45.45,0,0,1-.055.012l-.025.006a.213.213,0,0,1-.061.006.08.08,0,0,1-.021,0,.246.246,0,0,1-.158-.062.23.23,0,0,1-.049-.166v-.051Zm-1.42-1.266h0l-.393,1.875h1.445l.086-.387h-.922l.086-.363h.838l.078-.395h-.836l.08-.369h.9l.086-.361Zm-.818,0h0l-.41,1.875h.553l.389-1.875Zm-1.594,0h0l-.385,1.875h.529l.146-.713h.752l.086-.389h-.758l.082-.412h.816l.063-.361Zm-4.422-.711v.428h16.023v-.426h-16.023Zm10.715,10.441h-.492l.412-.8.08.8Z" transform="translate(-19695.895 -24489.879)" fill="#fff"/>
      </g>
      <path id="Path_1627" data-name="Path 1627" d="M325.324,407.2H249.389v19.72h75.936V407.2Zm-72.2,16.828v.426h-3.737v-.426Zm0-2.873v.427h-3.737v-.427Zm0-2.873v.427h-3.737v-.427Zm0-2.873v.427h-3.737v-.427Zm0-2.873v.427h-3.737v-.427Zm0-2.873v.427h-3.737v-.427Zm72.2,14.363v.426h-3.737v-.426Zm0-2.873v.427h-3.737v-.427Zm0-2.873v.427h-3.737v-.427Zm0-2.873v.427h-3.737v-.427Zm0-2.873v.427h-3.737v-.427Zm0-2.873v.427h-3.737v-.427ZM226.413,407.2h20.952v19.719H226.413Zm2.465,16.828v.426H244.9v-.426Zm0-2.873v.427H244.9v-.427Zm0-2.873v.427H244.9v-.427Zm0-2.873v.427H244.9v-.427Zm0-2.873v.427H244.9v-.427Zm0-2.873v.427H244.9v-.427Zm4.034,2.587h.531l.142-.715h.754l.083-.386h-.757l.083-.409h.816l.059-.365H233.3l-.386,1.876Zm1.57,0h.551l.387-1.876h-.531l-.407,1.876Zm.836,0h1.448l.083-.389h-.92l.083-.365h.837l.08-.389h-.837l.083-.368h.9l.083-.365H235.71l-.389,1.876Zm1.979-1.244h0a.391.391,0,0,0,.066.254.4.4,0,0,0,.144.111c.021.009.041.016.06.022l.055.019h.013a1.023,1.023,0,0,0,.116.037l.145.039a1.553,1.553,0,0,1,.218.077c.065.029.1.066.1.109v.023a.153.153,0,0,1-.057.124.407.407,0,0,1-.127.07.537.537,0,0,1-.078.02.426.426,0,0,1-.065.006.216.216,0,0,1-.173-.063.242.242,0,0,1-.055-.165v-.027a.2.2,0,0,1,0-.033h-.528a.1.1,0,0,1-.006.042v.125a.5.5,0,0,0,.129.336.748.748,0,0,0,.555.147,1.071,1.071,0,0,0,.734-.219.649.649,0,0,0,.245-.493.5.5,0,0,0-.007-.076.352.352,0,0,0-.022-.079.4.4,0,0,0-.117-.158.591.591,0,0,0-.261-.114,2.272,2.272,0,0,1-.361-.108c-.1-.04-.149-.087-.149-.138a.155.155,0,0,1,.074-.133.327.327,0,0,1,.16-.058h.033a.273.273,0,0,1,.147.04.138.138,0,0,1,.063.131v.029a.126.126,0,0,1-.006.031h.531a.749.749,0,0,0,.022-.1.665.665,0,0,0,.006-.088.334.334,0,0,0-.168-.315.924.924,0,0,0-.366-.1h-.126a1.228,1.228,0,0,0-.639.161.613.613,0,0,0-.3.51Zm1.752.57h0v.137a.721.721,0,0,0,.168.4.737.737,0,0,0,.583.179h.044a1.141,1.141,0,0,0,.525-.106,1.016,1.016,0,0,0,.312-.236.69.69,0,0,0,.108-.174.369.369,0,0,0,.034-.129v-.029h-.549a.268.268,0,0,1-.076.156.428.428,0,0,1-.14.1.417.417,0,0,1-.058.019.233.233,0,0,1-.053.006.152.152,0,0,1-.031,0h-.029a.23.23,0,0,1-.219-.1.507.507,0,0,1-.058-.252v-.09a.645.645,0,0,1,.012-.1.129.129,0,0,1,.006-.047.26.26,0,0,0,.009-.047,1.092,1.092,0,0,1,.171-.421.478.478,0,0,1,.225-.177l.047-.009a.272.272,0,0,1,.047,0h.056a.617.617,0,0,1,.066.01.294.294,0,0,1,.115.06.168.168,0,0,1,.054.137v.052h.569a.51.51,0,0,0,.015-.075v-.069a.344.344,0,0,0-.165-.321.992.992,0,0,0-.363-.127c-.047-.007-.092-.011-.137-.014s-.088,0-.127,0a1.077,1.077,0,0,0-.756.252,1.282,1.282,0,0,0-.338.53,1.514,1.514,0,0,0-.054.253,1.836,1.836,0,0,0-.015.227Zm-6.272,2.871h0v.137a.719.719,0,0,0,.168.4.739.739,0,0,0,.583.179h.044a1.13,1.13,0,0,0,.525-.106,1.025,1.025,0,0,0,.312-.236.68.68,0,0,0,.108-.174.37.37,0,0,0,.034-.129v-.032H234a.271.271,0,0,1-.075.156.435.435,0,0,1-.14.1.346.346,0,0,1-.058.019.236.236,0,0,1-.054.006.146.146,0,0,1-.031,0h-.029a.229.229,0,0,1-.219-.1.5.5,0,0,1-.058-.251v-.091a.8.8,0,0,1,.012-.1.112.112,0,0,1,.007-.047.2.2,0,0,0,.009-.047,1.084,1.084,0,0,1,.171-.421.475.475,0,0,1,.225-.178l.047-.009a.26.26,0,0,1,.047,0h.056a.541.541,0,0,1,.066.01.292.292,0,0,1,.115.06.168.168,0,0,1,.054.137c0,.007,0,.015,0,.025v.027h.57a.525.525,0,0,0,.015-.075c0-.024,0-.048,0-.07a.344.344,0,0,0-.165-.321.983.983,0,0,0-.363-.127c-.047-.006-.092-.012-.138-.014s-.087,0-.127,0a1.075,1.075,0,0,0-.756.253,1.281,1.281,0,0,0-.338.529,1.51,1.51,0,0,0-.054.253,1.838,1.838,0,0,0-.015.227Zm1.919.674h.552l.386-1.876H235.1l-.407,1.876Zm.836,0h1.449l.083-.389h-.92l.083-.366h.837l.08-.389h-.836l.083-.367h.9l.083-.366h-1.449l-.389,1.876Zm1.98-1.244h0a.387.387,0,0,0,.066.254.392.392,0,0,0,.143.111c.021.009.041.016.06.022l.055.019h.013a1.083,1.083,0,0,0,.117.037l.145.038a1.562,1.562,0,0,1,.218.079c.066.029.1.065.1.108v.023a.152.152,0,0,1-.057.124.408.408,0,0,1-.127.07.553.553,0,0,1-.077.02.438.438,0,0,1-.065.006.216.216,0,0,1-.173-.063.242.242,0,0,1-.055-.165v-.027a.313.313,0,0,1,0-.033h-.528l-.006.042v.125a.493.493,0,0,0,.13.336.746.746,0,0,0,.554.148,1.074,1.074,0,0,0,.734-.219.651.651,0,0,0,.245-.494.5.5,0,0,0-.006-.076.377.377,0,0,0-.022-.079.4.4,0,0,0-.118-.159.592.592,0,0,0-.26-.114,2.277,2.277,0,0,1-.362-.108c-.1-.04-.149-.087-.149-.138a.155.155,0,0,1,.074-.133.336.336,0,0,1,.159-.058h.033a.278.278,0,0,1,.148.04.137.137,0,0,1,.062.131c0,.008,0,.018,0,.028a.127.127,0,0,1-.006.031h.531a.7.7,0,0,0,.022-.1.666.666,0,0,0,.006-.088.331.331,0,0,0-.168-.314.9.9,0,0,0-.366-.1h-.126a1.231,1.231,0,0,0-.639.161.611.611,0,0,0-.3.51Zm1.751.57h0v.137a.72.72,0,0,0,.169.4.738.738,0,0,0,.583.179h.044a1.127,1.127,0,0,0,.524-.106,1.015,1.015,0,0,0,.312-.236.7.7,0,0,0,.109-.174.381.381,0,0,0,.033-.129v-.032h-.549a.271.271,0,0,1-.075.156.443.443,0,0,1-.14.1.326.326,0,0,1-.058.019.235.235,0,0,1-.053.006H240.1a.229.229,0,0,1-.219-.1.5.5,0,0,1-.058-.251v-.091a.8.8,0,0,1,.012-.1.129.129,0,0,1,.006-.047.26.26,0,0,0,.009-.047,1.084,1.084,0,0,1,.171-.421.48.48,0,0,1,.226-.178l.046-.009a.269.269,0,0,1,.047,0h.056a.58.58,0,0,1,.066.01.3.3,0,0,1,.115.06.207.207,0,0,1,.051.162.161.161,0,0,1,0,.027h.57a.525.525,0,0,0,.015-.075.624.624,0,0,0,0-.07.344.344,0,0,0-.166-.321.979.979,0,0,0-.363-.127c-.047-.006-.092-.012-.137-.014s-.087,0-.127,0a1.072,1.072,0,0,0-.755.253,1.274,1.274,0,0,0-.338.529,1.447,1.447,0,0,0-.055.253,1.846,1.846,0,0,0-.015.227Zm-5.28,2.3h0a.391.391,0,0,0,.066.254.4.4,0,0,0,.144.111.482.482,0,0,0,.06.022l.054.019h.012a1.06,1.06,0,0,0,.117.036l.145.039a1.63,1.63,0,0,1,.218.077c.065.03.1.066.1.109v.024a.153.153,0,0,1-.057.124.4.4,0,0,1-.127.07.531.531,0,0,1-.078.019.407.407,0,0,1-.065.006.216.216,0,0,1-.174-.063.244.244,0,0,1-.054-.164V417.4a.186.186,0,0,1,0-.032h-.529v.042l-.006.042v.083a.5.5,0,0,0,.129.337.746.746,0,0,0,.555.148,1.072,1.072,0,0,0,.734-.219.65.65,0,0,0,.245-.494.5.5,0,0,0-.006-.076.374.374,0,0,0-.022-.079.4.4,0,0,0-.117-.158.6.6,0,0,0-.261-.114,2.214,2.214,0,0,1-.362-.108c-.1-.04-.149-.087-.149-.138a.155.155,0,0,1,.074-.133.341.341,0,0,1,.159-.058h.034a.278.278,0,0,1,.147.04.138.138,0,0,1,.063.131v.029a.243.243,0,0,1-.006.031h.53a.645.645,0,0,0,.022-.1.661.661,0,0,0,.006-.088.329.329,0,0,0-.168-.314.906.906,0,0,0-.365-.1h-.127a1.226,1.226,0,0,0-.638.161.613.613,0,0,0-.3.511Zm1.63,1.243h1.448l.083-.389h-.92l.083-.365h.837l.08-.389h-.837l.083-.368h.9l.083-.365H236l-.389,1.876Zm1.979-1.243h0a.391.391,0,0,0,.066.254.4.4,0,0,0,.144.111.531.531,0,0,0,.06.022l.054.019h.013a1.214,1.214,0,0,0,.116.036l.145.039a1.553,1.553,0,0,1,.218.077c.065.03.1.066.1.109v.024a.155.155,0,0,1-.057.124.406.406,0,0,1-.127.07.527.527,0,0,1-.078.019.407.407,0,0,1-.065.006.214.214,0,0,1-.173-.063.241.241,0,0,1-.055-.164V417.4a.186.186,0,0,1,0-.032h-.528l-.006.042v.125a.5.5,0,0,0,.129.337.746.746,0,0,0,.555.148,1.072,1.072,0,0,0,.734-.219.651.651,0,0,0,.245-.494.5.5,0,0,0-.006-.076.375.375,0,0,0-.022-.079.4.4,0,0,0-.117-.158.592.592,0,0,0-.261-.114,2.183,2.183,0,0,1-.361-.108c-.1-.04-.149-.087-.149-.138a.157.157,0,0,1,.074-.133.341.341,0,0,1,.16-.058h.033a.274.274,0,0,1,.147.04.137.137,0,0,1,.063.131v.029a.124.124,0,0,1-.006.031h.531a.73.73,0,0,0,.022-.1.658.658,0,0,0,.006-.088.332.332,0,0,0-.168-.314.913.913,0,0,0-.366-.1h-.127a1.228,1.228,0,0,0-.638.161.613.613,0,0,0-.3.511Zm1.65,1.243h.552l.386-1.876h-.53l-.407,1.876Zm-6.485,1.628h0a.393.393,0,0,0,.066.254.414.414,0,0,0,.144.111l.06.022.054.019h.012a1.1,1.1,0,0,0,.117.036l.145.039a1.521,1.521,0,0,1,.218.078q.1.044.1.108v.024a.153.153,0,0,1-.057.125.4.4,0,0,1-.127.07.457.457,0,0,1-.078.019.426.426,0,0,1-.065.007.217.217,0,0,1-.174-.064.242.242,0,0,1-.054-.164v-.027a.189.189,0,0,1,0-.033h-.528l-.006.041-.006.042v.042a.4.4,0,0,0,0,.041.5.5,0,0,0,.129.337.749.749,0,0,0,.555.147,1.072,1.072,0,0,0,.734-.219.65.65,0,0,0,.245-.494.506.506,0,0,0-.006-.076.358.358,0,0,0-.022-.079.392.392,0,0,0-.117-.159.6.6,0,0,0-.261-.114,2.238,2.238,0,0,1-.362-.107c-.1-.041-.149-.087-.149-.139a.157.157,0,0,1,.074-.133.34.34,0,0,1,.16-.058h.033a.277.277,0,0,1,.147.04.139.139,0,0,1,.063.131c0,.009,0,.019,0,.029a.174.174,0,0,1-.006.031h.531a.632.632,0,0,0,.022-.1.563.563,0,0,0,.006-.088.33.33,0,0,0-.168-.315.907.907,0,0,0-.365-.1H233.7a1.219,1.219,0,0,0-.638.161.609.609,0,0,0-.3.51Zm1.63,1.244h1.448l.083-.389H235l.083-.365h.837l.08-.389h-.836l.083-.368h.9l.083-.366h-1.448l-.389,1.876Zm1.733,0h.49l.285-1.428.347,1.428h.736l.407-1.876h-.49l-.306,1.345-.326-1.345h-.754l-.389,1.876Zm2.042,0h.531l.2-.368h.736l.06.368h.593l-.347-1.876h-.653l-1.122,1.876Zm1.427-.754-.08-.8-.409.8Zm.879.754h.552l.386-1.876h-.531Zm-5.63,2.87h.551l.387-1.876h-.531l-.407,1.876Zm.836,0h1.449l.083-.388h-.92l.083-.366h.837l.08-.389h-.836l.083-.368h.9l.083-.366h-1.449l-.389,1.876Zm1.733,0H238.8l.08-.407h-.857l.327-1.469h-.55l-.389,1.876Zm30.145-9.591h-3.9a1.237,1.237,0,0,0-.243-1.246,1.864,1.864,0,0,0-1.406-.448,2,2,0,0,0-1.948,1.285c-.217,1.032.958,1.363,1.932,1.636,2.23.6,5.606.838,4.8,4.636-.63,2.961-3.85,4.367-7.1,4.367-3.272,0-5.954-.958-5.2-4.775h3.9c-.3,1.324.519,2.045,1.922,2.045.9,0,2.146-.467,2.344-1.4.4-1.909-2.565-1.5-5.337-2.843a2.835,2.835,0,0,1-1.393-3.428c.863-3.331,3.979-4.246,6.921-4.246,2.9,0,5.662,1.032,4.711,4.422Zm11.268,9.934H268.11l2.99-14.064h10.713l-.581,2.727h-6.818l-.617,2.9h6.272l-.578,2.727H273.22l-.633,2.98H279.4l-.58,2.727Zm2.2,0,2.99-14.064h5.453l2.487,10.48.046-.039,2.22-10.441h3.507l-2.99,14.064h-5.4L286.858,413.3h-.039l-2.289,10.772Zm19.05,0h-3.9l8.541-14.064h4.752l2.561,14.064h-4.4l-.35-2.747h-5.707l-1.5,2.747Zm3.071-5.473,3.152-5.843h.058l.549,5.843Zm14.264,5.473h-3.9l2.989-14.064h3.9Z" transform="translate(-133.413 -407.198)" fill="#fff" fill-rule="evenodd"/>
    </g>
  </g>
</svg>
